# xmcd
#
# Track frame offsets: 
#        150
#        28609
#        46239
#        73693
#        94979
#        122693
#        153487
#        183343
#        206729
#        236628
#
# Disc length: 3511 seconds
#
# Revision: 0
# Processed by: cddbd v1.5.2PL0 Copyright (c) Steve Scherf et al.
# Submitted via: ExactAudioCopyFreeDBPlugin 1.0
#
DISCID=880db50a
DTITLE=Ndirande Anglican Voices - Mulungu Amatikondera
DYEAR=1900
DGENRE=Gospel
TTITLE0=Sindibwenzera Choyipa
TTITLE1=Wodala Ndi Munthuyo
TTITLE2=God Will Provide
TTITLE3=Oyimba Ndi Ambiri
TTITLE4=Ndiri Ndi Mantha
TTITLE5=Mulungu Amatikondera
TTITLE6=Ndine Wake Timakondana
TTITLE7=Nthawi Yako Yakwana
TTITLE8=M'bale Udzabweza Chiyani
TTITLE9=Palibe Kanthu Padziko
EXTD=
EXTT0=
EXTT1=
EXTT2=
EXTT3=
EXTT4=
EXTT5=
EXTT6=
EXTT7=
EXTT8=
EXTT9=
PLAYORDER=
